PathFileType	4	(X/Y/Z)	C:\Users\Biomechanik\SynologyDrive\AlexP\Athlete_03\Athlete_3_25_03_31\Squat_bar_02\marker_experimental.trc
DataRate	CameraRate	NumFrames	NumMarkers	Units	OrigDataRate	OrigDataStartFrame	OrigNumFrames
200.000000	200.000000	4	55	mm	200.000000	195	522
Frame#	Time	BL			BR			GLAB			RFHD			LFHD			C7			T6			SPINMOL			SPINM2			SPINM3			T12			BELTOL			BELT2			BELT3			SACROL			SACR2			SACR3			LTHOL			LTH2			LTH3			LSHAOL			LSHA2			LSHA3			LHEE			LTOE			LM5			RTHOL			RTH2			RTH3			RSHAOL			RSHA2			RSHA3			RHEE			RTOE			RM5			STRN			XIPH			LACR			LUAOL			LUA2			LUA3			LLAOL			LLA2			LLA3			LWRR			LWRU			RACR			RUAOL			RUA2			RUA3			RLAOL			RLA2			RLA3			RWRR			RWRU			
		X1	Y1	Z1	X2	Y2	Z2	X3	Y3	Z3	X4	Y4	Z4	X5	Y5	Z5	X6	Y6	Z6	X7	Y7	Z7	X8	Y8	Z8	X9	Y9	Z9	X10	Y10	Z10	X11	Y11	Z11	X12	Y12	Z12	X13	Y13	Z13	X14	Y14	Z14	X15	Y15	Z15	X16	Y16	Z16	X17	Y17	Z17	X18	Y18	Z18	X19	Y19	Z19	X20	Y20	Z20	X21	Y21	Z21	X22	Y22	Z22	X23	Y23	Z23	X24	Y24	Z24	X25	Y25	Z25	X26	Y26	Z26	X27	Y27	Z27	X28	Y28	Z28	X29	Y29	Z29	X30	Y30	Z30	X31	Y31	Z31	X32	Y32	Z32	X33	Y33	Z33	X34	Y34	Z34	X35	Y35	Z35	X36	Y36	Z36	X37	Y37	Z37	X38	Y38	Z38	X39	Y39	Z39	X40	Y40	Z40	X41	Y41	Z41	X42	Y42	Z42	X43	Y43	Z43	X44	Y44	Z44	X45	Y45	Z45	X46	Y46	Z46	X47	Y47	Z47	X48	Y48	Z48	X49	Y49	Z49	X50	Y50	Z50	X51	Y51	Z51	X52	Y52	Z52	X53	Y53	Z53	X54	Y54	Z54	X55	Y55	Z55	

196	0.975	230.4395751953125	952.3441162109376	-2234.88818359375	251.1764831542969	981.677490234375	-214.2166137695312	542.1715698242188	1128.511962890625	-1190.143798828125	492.1190795898438	1155.504150390625	-1127.681884765625	499.9772033691406	1152.686889648438	-1263.211303710938	298.0586547851562	1026.022338867188	-1194.71337890625	170.8120269775391	915.1886596679689	-1202.9580078125	148.7347717285156	893.6331176757814	-1222.919067382812	139.9615631103516	887.2292480468751	-1173.897827148438	111.0251922607422	840.5309448242189	-1210.822387695312	81.11362457275391	787.0933837890626	-1210.45849609375	45.92523956298828	777.2651367187501	-1225.589233398438	44.78659057617188	773.5086669921876	-1175.18896484375	7.759471416473389	727.0552978515626	-1205.341552734375	-50.55411911010742	625.6752319335939	-1231.481689453125	-49.54172134399414	621.8659057617189	-1179.970703125	-65.82583618164062	564.8446655273439	-1209.312133789062	135.4261932373047	457.0412597656251	-1506.913208007812	170.9026184082031	387.2803039550782	-1520.304809570312	184.5035552978516	433.7445678710939	-1535.121215820312	230.3693695068359	298.4777832031251	-1615.011596679688	172.1176147460938	256.9693603515626	-1579.595581054688	214.6142578125	240.2210693359376	-1601.217041015625	111.3417892456055	71.66348266601571	-1467.20947265625	316.0101928710938	49.72631072998056	-1537.748779296875	239.4385528564453	25.49460792541514	-1619.74755859375	118.0901260375977	443.7518920898438	-914.131103515625	172.1698760986328	482.0294189453126	-869.304443359375	170.0254669189453	433.6950378417969	-880.8096923828125	209.9231872558594	311.7708740234376	-806.7612915039062	211.8075714111328	232.9009399414063	-805.759765625	179.6919708251953	262.4562988281251	-830.015380859375	92.63311767578125	66.79242706298834	-966.4815673828125	281.3846435546875	46.32930374145513	-871.3043212890625	192.0037994384766	38.21289062500005	-799.336669921875	405.4868469238281	861.8302001953126	-1201.80810546875	359.4069519042969	720.7016601562501	-1198.792846679688	332.9945373535156	974.9855346679689	-1367.816528320312	208.4286651611328	870.9868164062501	-1460.91943359375	156.4452056884766	833.2354736328126	-1448.976684570312	185.2039337158203	816.0209960937501	-1487.406616210938	154.0636444091797	749.9505615234376	-1556.105346679688	225.8476257324219	740.8903198242189	-1588.930419921875	199.9208679199219	783.2921142578126	-1580.264282226562	262.9956970214844	859.3713378906251	-1617.389282226562	273.7170104980469	887.2532958984376	-1544.422607421875	344.1349182128906	966.3574829101564	-1035.628540039062	221.9030456542969	866.2876586914064	-949.3701171875	191.8115081787109	814.7490234375	-920.6190795898438	171.8508453369141	827.4780273437501	-967.4620971679688	186.1481018066406	745.6934204101562	-835.7963256835938	192.7279815673828	824.718505859375	-824.9194946289062	227.4002075195312	788.0340576171875	-816.81494140625	266.1758728027344	872.6607055664062	-800.2366333007812	288.1176452636719	902.9029541015625	-871.1848754882812	
197	0.98	230.7483673095703	949.3629760742189	-2234.853515625	251.4375610351562	978.9446411132812	-214.1834869384765	542.472900390625	1125.568481445312	-1190.091430664062	492.4299621582031	1152.550415039062	-1127.652465820312	500.2667236328125	1149.748168945312	-1263.168334960938	298.3535766601562	1023.1455078125	-1194.678833007812	171.0508880615234	912.4133911132814	-1202.922241210938	148.9749603271484	890.8935546875001	-1222.884399414062	140.2086486816406	884.4755249023439	-1173.854248046875	111.2158279418945	837.8262939453126	-1210.80419921875	81.26802062988281	784.4776611328126	-1210.439697265625	46.14981079101562	774.7694091796876	-1225.582885742188	45.01771545410156	770.9993286132814	-1175.186401367188	7.975088119506836	724.5718383789064	-1205.337524414062	-50.52762222290039	622.9545288085939	-1231.499633789062	-49.48883819580078	619.1329345703126	-1179.97509765625	-65.70680236816406	562.0968017578126	-1209.322509765625	135.6407165527344	455.4766235351564	-1507.084228515625	171.4332122802734	385.9287414550782	-1520.764404296875	184.8073883056641	432.5021972656251	-1535.4296875	230.6392517089844	298.2742309570314	-1615.302856445312	172.3546600341797	256.874237060547	-1579.823486328125	214.8195343017578	240.0513916015626	-1601.440185546875	111.3782424926758	71.68428802490243	-1467.196655273438	316.0299377441406	49.71947479248056	-1537.75390625	239.4349060058594	25.48610496521006	-1619.751098632812	118.4557037353516	442.0556335449219	-914.0194702148438	172.3373718261719	480.7523193359376	-869.3076171875	170.4165954589844	432.3649291992188	-880.6243896484375	210.3407897949219	311.5281372070313	-806.5309448242188	212.1029663085938	232.6538391113282	-805.6031494140625	180.0406341552734	262.2832641601563	-829.8409423828125	92.67546844482422	66.82013702392584	-966.5288696289062	281.3954467773438	46.30865097045904	-871.3334350585938	192.0126190185547	38.21751022338872	-799.3453979492188	405.7450561523438	858.9172363281251	-1201.771606445312	359.6334533691406	717.8176879882814	-1198.74609375	333.2951965332031	972.0611572265626	-1367.792724609375	208.6359252929688	868.1482543945314	-1460.898559570312	156.6516723632812	830.4375000000001	-1448.927001953125	185.3854370117188	813.1940307617189	-1487.370483398438	154.1757202148438	747.1348876953126	-1556.0673828125	225.9981536865234	738.0008544921876	-1588.869873046875	200.098876953125	780.4232788085939	-1580.222778320312	263.2266235351562	856.4591064453126	-1617.348876953125	273.9668884277344	884.3395996093751	-1544.382568359375	344.4142761230469	963.4471435546876	-1035.58935546875	222.1222991943359	863.4645996093751	-949.3344116210938	191.9881896972656	811.9434814453125	-920.5770263671875	172.0499877929688	824.6746215820314	-967.4281005859375	186.2884368896484	742.9094848632812	-835.7410278320312	192.9105987548828	821.9315185546875	-824.8818969726562	227.5596618652344	785.234619140625	-816.7685546875	266.3865966796875	869.8368530273438	-800.1957397460938	288.3322448730469	900.060791015625	-871.1471557617188	
198	0.985	231.0483703613281	946.3831176757814	-2234.817138671875	251.6938934326172	976.2267456054688	-214.1493530273437	542.7655029296875	1122.64404296875	-1190.037475585938	492.7294616699219	1149.615356445312	-1127.618896484375	500.5466003417969	1146.830444335938	-1263.120361328125	298.6424560546875	1020.282409667969	-1194.644287109375	171.2868194580078	909.6497192382814	-1202.886108398438	149.2119598388672	888.1662597656251	-1222.849243164062	140.451171875	881.7336425781251	-1173.8115234375	111.4037475585938	835.1326904296876	-1210.786010742188	81.42202758789062	781.8724365234376	-1210.422485351562	46.37139129638672	772.2853393554689	-1225.575561523438	45.24135589599609	768.4954833984376	-1175.182006835938	8.178491592407227	722.0988769531251	-1205.340087890625	-50.49916839599609	620.2272949218751	-1231.520751953125	-49.43985748291016	616.3950195312501	-1179.982543945312	-65.58502960205078	559.3443603515626	-1209.337890625	135.8619842529297	453.9258117675782	-1507.25244140625	171.9681091308594	384.5894470214845	-1521.220581054688	185.1172485351562	431.2706298828126	-1535.734252929688	230.9090423583984	298.0753784179689	-1615.584838867188	172.5912475585938	256.7835693359376	-1580.043090820312	215.0243988037109	239.8863830566407	-1601.656005859375	111.4152374267578	71.7035675048829	-1467.18505859375	316.0505065917969	49.71240997314462	-1537.758666992188	239.4315185546875	25.47794342041026	-1619.754272460938	118.8193511962891	440.3622741699219	-913.9142456054688	172.4987945556641	479.4780883789063	-869.3167114257812	170.8039093017578	431.0396118164063	-880.4459228515625	210.7503204345703	311.2896118164063	-806.3065795898438	212.3915557861328	232.4111328125001	-805.4505615234375	180.3821563720703	262.1135253906251	-829.6718139648438	92.71540832519531	66.8460311889649	-966.5768432617188	281.4061279296875	46.29095077514654	-871.3594970703125	192.0212707519531	38.22227478027349	-799.3544921875	406.0020751953125	856.0186767578126	-1201.735717773438	359.8602294921875	714.9493408203126	-1198.704223632812	333.5892639160156	969.1534423828126	-1367.768920898438	208.8458251953125	865.3175659179689	-1460.879516601562	156.8590698242188	827.6454467773439	-1448.881958007812	185.5704040527344	810.3734741210939	-1487.335205078125	154.2921447753906	744.3261108398439	-1556.028076171875	226.15576171875	735.1181030273439	-1588.807373046875	200.2808074951172	777.5609130859376	-1580.178588867188	263.4569396972656	853.5562133789064	-1617.30712890625	274.2149658203125	881.4366455078126	-1544.341186523438	344.69091796875	960.5559692382814	-1035.552368164062	222.3392944335938	860.6546630859376	-949.2992553710938	192.1651458740234	809.1520385742188	-920.5357055664062	172.2484588623047	821.8847045898439	-967.3956298828125	186.4268188476562	740.1383056640625	-835.6875	193.0907135009766	819.1574096679688	-824.8450317382812	227.7165985107422	782.4473266601562	-816.7227783203125	266.5937194824219	867.0264282226562	-800.1544189453125	288.5388793945312	897.234375	-871.1080932617188	
199	0.99	231.3401184082031	943.4057617187501	-2234.779541015625	251.9455261230469	973.524169921875	-214.1147003173828	543.0491333007812	1119.738647460938	-1189.98291015625	493.01806640625	1146.699096679688	-1127.5810546875	500.8167419433594	1143.932983398438	-1263.068237304688	298.9248046875	1017.433227539063	-1194.610107421875	171.5196228027344	906.8975219726564	-1202.850219726562	149.4456024169922	885.4510498046876	-1222.814086914062	140.6887054443359	879.0033569335939	-1173.77099609375	111.5888519287109	832.4498901367189	-1210.7685546875	81.57599639892578	779.2774658203126	-1210.4072265625	46.59070205688477	769.8120117187501	-1225.567504882812	45.45845413208008	765.9968261718751	-1175.175659179688	8.371903419494629	719.6348266601564	-1205.34814453125	-50.46703720092773	617.4946899414064	-1231.54443359375	-49.39377212524414	613.6537475585939	-1179.992797851562	-65.46053314208984	556.5892333984376	-1209.357788085938	136.0893249511719	452.3890380859376	-1507.4169921875	172.5057525634766	383.2623901367189	-1521.674438476562	185.4326629638672	430.0496826171876	-1536.03466796875	231.1789093017578	297.8811035156251	-1615.856811523438	172.8275146484375	256.6970520019532	-1580.25390625	215.2289276123047	239.7259216308595	-1601.864013671875	111.4526443481445	71.72116851806649	-1467.174560546875	316.0717468261719	49.70511245727548	-1537.763427734375	239.4282836914062	25.47016334533701	-1619.756958007812	119.1800994873047	438.6729125976563	-913.8147583007812	172.6541290283203	478.2076110839844	-869.3314819335938	171.1865844726562	429.7197570800782	-880.2736206054688	211.1511535644531	311.0556335449219	-806.0881958007812	212.6724090576172	232.1734313964844	-805.301513671875	180.7160034179688	261.9474182128907	-829.5078735351562	92.75310516357422	66.86991119384771	-966.6251220703125	281.4165954589844	46.27685165405279	-871.3818359375	192.0296478271484	38.22713851928716	-799.3638916015625	406.2575378417969	853.1347656250001	-1201.700439453125	360.0872192382812	712.0967407226564	-1198.667358398438	333.8768310546875	966.2620239257814	-1367.745361328125	209.0590209960938	862.4945678710939	-1460.862182617188	157.0669860839844	824.8591308593751	-1448.842529296875	185.7597198486328	807.5593261718751	-1487.300659179688	154.4142303466797	741.5244140625001	-1555.988159179688	226.3196105957031	732.2428588867189	-1588.744384765625	200.4663391113281	774.7058715820314	-1580.1328125	263.6867980957031	850.6629638671876	-1617.264404296875	274.4613647460938	878.5445556640626	-1544.298950195312	344.96484375	957.6851196289064	-1035.517578125	222.5546417236328	857.8577270507814	-949.2646484375	192.3435821533203	806.3748168945312	-920.4951782226562	172.4467468261719	819.1081542968751	-967.3644409179688	186.5646209716797	737.3798828125	-835.6351928710938	193.2695159912109	816.3963012695312	-824.8085327148438	227.8721160888672	779.672607421875	-816.677490234375	266.7981872558594	864.2300415039062	-800.1129150390625	288.7378845214844	894.4240112304688	-871.0679321289062	
